<svg version="1.1" id="Calque_1" xmlns="http://www.w3.org/2000/svg" xmlns:xlink="http://www.w3.org/1999/xlink" x="0px" y="0px"
	 width="295.463px" height="164.345px" viewBox="0 0 295.463 164.345" enable-background="new 0 0 295.463 164.345"
	 xml:space="preserve">
<path fill="#292929" d="M291.835,111.896c-1.478,0.114-18.811,1.506-39.04,5.565l0.827,9.672
	c19.988-5.168,35.785-13.746,38.233-15.196C291.877,111.925,291.861,111.895,291.835,111.896"/>
<path fill="#323232" d="M247.169,63.956c-13.31-67.443-99.437-63.924-99.437-63.924S61.604-3.488,48.294,63.956
	c-2.823,18.992-6.453,63.178-6.453,63.178s31.095,11.629,105.891,14.342c74.795-2.713,105.89-14.342,105.89-14.342
	S249.992,82.947,247.169,63.956"/>
<g opacity="0.5">
	<g>
		<defs>
			<rect id="SVGID_1_" x="41.841" y="4.56" width="211.781" height="136.916"/>
		</defs>
		<clipPath id="SVGID_2_">
			<use xlink:href="#SVGID_1_"  overflow="visible"/>
		</clipPath>
		<path clip-path="url(#SVGID_2_)" fill="#323232" d="M247.169,63.955c-7.366-37.326-37.036-52.915-62.067-59.396
			c3.234,6.01,5.744,12.85,7.281,20.638c0.039,0.264,0.079,0.532,0.118,0.805c5.344,36.969-22.525,70.75-61.185,74.309
			c-11.236,1.033-23.996,1.884-38.37,2.406c-18.941-0.688-35.075-1.947-48.615-3.443c-1.425,14.898-2.489,27.859-2.489,27.859
			s31.094,11.629,105.89,14.342c74.794-2.713,105.89-14.342,105.89-14.342S249.992,82.947,247.169,63.955"/>
	</g>
</g>
<path fill="#C1B49A" d="M147.731,116.337c-63.535-2.306-95.531-11.041-103.727-13.619c-1.258,13.397-2.163,24.416-2.163,24.416
	s31.094,11.629,105.89,14.342c74.796-2.713,105.891-14.342,105.891-14.342s-0.905-11.019-2.163-24.416
	C243.263,105.296,211.266,114.031,147.731,116.337"/>
<g opacity="0.5">
	<g>
		<defs>
			<rect id="SVGID_3_" x="41.841" y="118.544" width="211.781" height="22.932"/>
		</defs>
		<clipPath id="SVGID_4_">
			<use xlink:href="#SVGID_3_"  overflow="visible"/>
		</clipPath>
		<path clip-path="url(#SVGID_4_)" fill="#C1B49A" d="M147.731,131.275c-60.031-2.086-93.086-9.442-105.158-12.731
			c-0.457,5.242-0.732,8.59-0.732,8.59s31.094,11.629,105.89,14.342c74.796-2.713,105.891-14.342,105.891-14.342
			s-0.275-3.348-0.732-8.59C240.817,121.833,207.763,129.189,147.731,131.275"/>
	</g>
</g>
<path fill="#323232" d="M291.949,111.908c-0.007-0.011-0.019-0.017-0.029-0.009c-2.218,1.326-18.123,10.018-38.298,15.234
	c0,0-31.095,11.629-105.89,14.342c-74.796-2.713-105.891-14.342-105.891-14.342c-20.174-5.217-36.08-13.908-38.297-15.234
	c-0.011-0.008-0.023-0.002-0.029,0.009c-4.137,6.784-4.07,12.472-2.601,16.922c1.476,4.468,4.753,8.192,8.978,10.535
	c45.481,25.22,137.84,24.979,137.84,24.979s92.358,0.24,137.838-24.979c4.226-2.343,7.504-6.067,8.979-10.535
	C296.018,124.38,296.085,118.692,291.949,111.908"/>
<g opacity="0.5">
	<g>
		<defs>
			<rect id="SVGID_5_" x="1.813" y="111.896" width="293.65" height="52.446"/>
		</defs>
		<clipPath id="SVGID_6_">
			<use xlink:href="#SVGID_5_"  overflow="visible"/>
		</clipPath>
		<path clip-path="url(#SVGID_6_)" fill="#323232" d="M291.949,111.908c-0.006-0.011-0.019-0.017-0.029-0.009
			c-0.992,0.594-4.729,2.662-10.354,5.231c-0.068,0.241-0.14,0.479-0.217,0.714c-1.475,4.467-4.753,8.191-8.978,10.534
			c-45.48,25.22-137.839,24.979-137.839,24.979s-85.789,0.223-132.719-22.34c1.712,3.492,4.566,6.398,8.079,8.347
			c45.481,25.22,137.84,24.979,137.84,24.979s92.359,0.24,137.839-24.979c4.225-2.343,7.503-6.067,8.978-10.535
			C296.018,124.38,296.085,118.692,291.949,111.908"/>
	</g>
</g>
<path fill="#292929" d="M3.628,111.896c1.478,0.114,18.811,1.506,39.04,5.565l-0.827,9.672
	c-19.988-5.168-35.785-13.746-38.233-15.196C3.586,111.925,3.602,111.895,3.628,111.896"/>
</svg>
