<svg version="1.1" id="Calque_1" xmlns="http://www.w3.org/2000/svg" xmlns:xlink="http://www.w3.org/1999/xlink" x="0px" y="0px"
	 width="201.936px" height="207.798px" viewBox="0 0 201.936 207.798" enable-background="new 0 0 201.936 207.798"
	 xml:space="preserve">
<g>
	<path fill="#39393D" d="M160.604,163.601c-1.299-8.273-2.22-16.958-2.83-25.831c0.994,15.126,1.853,23.452,5.229,36.65
		c0,0-111.439,11.609-126.332,3.381c0,0-0.289-2.911-0.83-7.938c-22.182,5.18-36.152,12.133-35.836,19.201
		c0.561,12.589,46.22,20.778,101.981,18.289c55.76-2.487,100.506-14.713,99.944-27.303
		C201.598,172.581,185.384,166.661,160.604,163.601z"/>
	<path fill="#39393D" d="M157.666,136.12c0.005,0.072,0.009,0.139,0.014,0.211c-4.032-62.038,6.652-132.415,6.652-132.415
		C77.096-12.726,12.203,29.061,12.203,29.061c8.696,24.411,16.371,79.386,20.712,115.229
		C62.422,138.493,106.182,132.974,157.666,136.12z"/>
	<path fill="#FBB040" d="M163.003,174.42c-3.377-13.198-4.235-21.524-5.229-36.65c-0.031-0.479-0.062-0.947-0.095-1.439
		c-0.005-0.072-0.009-0.139-0.014-0.211c-51.483-3.146-95.243,2.373-124.75,8.171c1.29,10.648,2.285,19.604,2.926,25.572
		c0.541,5.027,0.83,7.938,0.83,7.938C51.564,186.03,163.003,174.42,163.003,174.42z"/>
</g>
</svg>
