<svg version="1.1" id="Calque_1" xmlns="http://www.w3.org/2000/svg" xmlns:xlink="http://www.w3.org/1999/xlink" x="0px" y="0px"
	 width="109.049px" height="46.017px" viewBox="0 0 109.049 46.017" enable-background="new 0 0 109.049 46.017"
	 xml:space="preserve">
<path fill="#231F20" d="M2.779,17.367C1.244,17.367,0,18.611,0,20.146v5.724c0,1.535,1.244,2.779,2.779,2.779h2.775V17.367H2.779z"
	/>
<path fill="#231F20" d="M26.894,0C14.207,0,3.886,10.322,3.886,23.008c0,12.688,10.321,23.009,23.008,23.009
	s23.008-10.321,23.008-23.009C49.902,10.322,39.581,0,26.894,0 M26.894,41.513c-10.204,0-18.505-8.301-18.505-18.505
	c0-10.203,8.301-18.504,18.505-18.504c10.204,0,18.505,8.301,18.505,18.504C45.399,33.212,37.098,41.513,26.894,41.513"/>
<path fill="#353333" d="M41.532,36.091c-3.859,4.151-8.967,6.45-14.638,6.548c-1.448,0.025-1.452,2.277,0,2.252
	c6.244-0.107,11.974-2.63,16.23-7.208C44.11,36.623,42.521,35.026,41.532,36.091"/>
<path fill="#353333" d="M26.894,1.126C14.842,1.307,5.192,10.956,5.012,23.008c-0.022,1.45,2.23,1.45,2.252,0
	c0.162-10.819,8.809-19.468,19.63-19.63C28.342,3.356,28.346,1.104,26.894,1.126"/>
<path fill="#231F20" d="M106.27,17.367c1.535,0,2.779,1.244,2.779,2.779v5.724c0,1.535-1.244,2.779-2.779,2.779h-2.775V17.367
	H106.27z"/>
<path fill="#231F20" d="M59.146,23.008c0,12.688,10.322,23.009,23.009,23.009c12.688,0,23.008-10.321,23.008-23.009
	C105.162,10.321,94.842,0,82.154,0C69.468,0,59.146,10.321,59.146,23.008 M63.65,23.008c0-10.202,8.301-18.504,18.504-18.504
	s18.504,8.302,18.504,18.504c0,10.204-8.301,18.506-18.504,18.506S63.65,33.212,63.65,23.008"/>
<path fill="#353333" d="M67.516,36.091c3.859,4.151,8.968,6.45,14.639,6.548c1.447,0.025,1.452,2.277,0,2.252
	c-6.244-0.107-11.975-2.63-16.23-7.208C64.938,36.623,66.527,35.026,67.516,36.091"/>
<path fill="#353333" d="M82.154,1.126c12.053,0.181,21.702,9.83,21.882,21.882c0.022,1.45-2.229,1.45-2.252,0
	c-0.161-10.819-8.809-19.468-19.63-19.63C80.707,3.356,80.702,1.104,82.154,1.126"/>
<path fill="#231F20" d="M59.395,21.792c-2.686-2.687-7.055-2.686-9.74,0l-2.229-2.229c3.914-3.914,10.283-3.915,14.198,0
	L59.395,21.792z"/>
</svg>
