<svg version="1.1" id="Calque_1" xmlns="http://www.w3.org/2000/svg" xmlns:xlink="http://www.w3.org/1999/xlink" x="0px" y="0px"
	 width="115.108px" height="38.138px" viewBox="0 0 115.108 38.138" enable-background="new 0 0 115.108 38.138"
	 xml:space="preserve">
<path fill="#C40A25" d="M112.667,3.774h-2.149c-0.135-0.202-0.276-0.401-0.429-0.595C108.483,1.159,106.082,0,103.5,0H73.867
	c-3.631,0-7.095,1.559-9.504,4.274c-2.408,2.716-3.541,6.341-3.106,9.944l0.012,0.084l0.041,0.27c-2.42-0.883-5.09-0.883-7.51,0
	l0.042-0.27l0.011-0.084c0.434-3.604-0.699-7.229-3.107-9.944C48.336,1.559,44.872,0,41.242,0H11.609
	c-2.582,0-4.984,1.159-6.59,3.18C4.866,3.373,4.725,3.572,4.591,3.774H2.442C1.093,3.774,0,4.867,0,6.215v4.229
	c0,1.348,1.093,2.44,2.442,2.44h1.702l2.912,10.143c2.092,8.9,9.927,15.111,19.078,15.111h11.189c7.557,0,13.94-5.646,14.864-13.143
	l0.944-6.101c2.615-1.955,6.231-1.955,8.847,0l0.943,6.101c0.924,7.496,7.307,13.143,14.863,13.143h11.189
	c9.151,0,16.986-6.211,19.078-15.111l2.912-10.143h1.703c1.348,0,2.44-1.093,2.44-2.44V6.215
	C115.108,4.867,114.015,3.774,112.667,3.774 M48.818,13.573L47.165,24.26l-0.012,0.084c-0.598,4.971-4.824,8.719-9.83,8.719H26.134
	c-6.798,0-12.616-4.625-14.149-11.247L8.339,9.117c-0.21-0.981,0.027-1.991,0.653-2.779c0.638-0.802,1.592-1.262,2.617-1.262h29.633
	c2.18,0,4.259,0.935,5.705,2.565C48.385,9.262,49.065,11.422,48.818,13.573 M106.769,9.117l-3.646,12.698
	c-1.533,6.622-7.352,11.247-14.149,11.247H77.785c-5.006,0-9.231-3.748-9.83-8.719l-0.012-0.084l-1.652-10.687
	c-0.248-2.151,0.433-4.312,1.871-5.932c1.445-1.631,3.524-2.565,5.705-2.565H103.5c1.024,0,1.979,0.46,2.616,1.262
	C106.742,7.126,106.979,8.136,106.769,9.117"/>
<path fill="#8E031E" d="M49.964,3.493c2.409,2.716,3.541,6.341,3.108,9.945l-0.012,0.084l-0.042,0.269c0,0-0.104,0.758-0.171,1.043
	c0,0,0.697-0.177,0.952-0.262c0,0,0.107-0.629,0.118-1.064c0.214-3.365-0.922-6.696-3.172-9.233
	c-0.302-0.341-0.621-0.664-0.955-0.967C49.848,3.369,49.907,3.43,49.964,3.493"/>
<path fill="#8E031E" d="M67.174,23.563c0.3,2.49,1.51,4.673,3.272,6.232c-1.332-1.474-2.238-3.352-2.492-5.451l-0.012-0.085
	l-1.652-10.688c-0.248-2.149,0.434-4.31,1.871-5.931c1.445-1.631,3.524-2.566,5.705-2.566H103.5c0.707,0,1.377,0.224,1.936,0.622
	c-0.033-0.046-0.062-0.095-0.099-0.14c-0.639-0.802-1.593-1.263-2.618-1.263H73.085c-2.18,0-4.26,0.936-5.705,2.565
	c-1.438,1.621-2.118,3.781-1.87,5.933l1.651,10.687L67.174,23.563z"/>
<path fill="#8E031E" d="M109.309,2.399c0.152,0.192,0.294,0.392,0.428,0.594h0.196c-0.277-0.329-0.575-0.634-0.893-0.912
	C109.131,2.186,109.222,2.29,109.309,2.399"/>
<path fill="#8E031E" d="M61.197,18.113c-2.615-1.955-6.232-1.955-8.847,0l-0.944,6.102C50.482,31.71,44.1,37.357,36.542,37.357
	H25.353c-5.154,0-9.891-1.971-13.419-5.283c3.594,3.779,8.654,6.063,14.2,6.063h11.189c7.558,0,13.94-5.646,14.864-13.143
	l0.944-6.101c2.379-1.779,5.584-1.935,8.113-0.477L61.197,18.113z"/>
<path fill="#8E031E" d="M15.489,28.438c-1.679-1.81-2.912-4.066-3.504-6.624L8.339,9.117c-0.21-0.981,0.027-1.991,0.653-2.778
	c0.638-0.803,1.592-1.263,2.617-1.263h29.633c1.846,0,3.617,0.677,4.995,1.873c-0.025-0.029-0.045-0.061-0.07-0.088
	c-1.446-1.632-3.526-2.566-5.705-2.566H10.828c-1.025,0-1.979,0.46-2.617,1.263C7.585,6.345,7.349,7.354,7.558,8.336l3.647,12.698
	C11.885,23.973,13.41,26.517,15.489,28.438"/>
<path fill="#8E031E" d="M88.194,37.357H77.004"/>
<path fill="#8E031E" d="M3.363,12.104H1.661c-0.474,0-0.915-0.138-1.29-0.371c0.432,0.69,1.196,1.151,2.071,1.151h1.145
	L3.363,12.104z"/>
<path fill="#E2405F" d="M31.226,0.946H14.179c-3.052,0-5.947,0.289-8.052,2.857c-2.767,3.373-1.469,7.019-0.409,10.71
	c0.346,1.206,2.231,0.693,1.883-0.519C6.537,10.289,5.056,5.903,9.433,3.562c1.935-1.034,4.647-0.664,6.769-0.664h15.024
	C32.481,2.898,32.483,0.946,31.226,0.946"/>
<path fill="#E2405F" d="M102.575,0.946h-29.07c-2.87,0-5.407,0.56-7.392,2.857c-0.817,0.946,0.558,2.333,1.381,1.38
	c2.154-2.494,4.789-2.285,7.705-2.285h10.596h16.78C103.831,2.898,103.833,0.946,102.575,0.946"/>
</svg>
