<svg id="Calque_1" data-name="Calque 1" xmlns="http://www.w3.org/2000/svg" viewBox="0 0 234.82 87.1"><defs><style>.cls-1{fill:#9c3521;}.cls-2{fill:#6e1c19;}</style></defs><title>mustache_1</title><path class="cls-1" d="M211.6,84.3s-10,21.77-24.54,11.79c-13.36-9.15-43-50.29-67.79-45.81-10.93,2-16.47,11.39-19.26,21.27-2.78-9.88-8.33-19.28-19.25-21.27C56,45.8,26.31,86.95,13,96.1-1.6,106.08-11.6,84.3-11.6,84.3s-12.13,17.05.92,35c12.43,17.11,90,34.87,110.67-14.19,20.63,49.06,98.24,31.3,110.67,14.19C223.72,101.35,211.6,84.3,211.6,84.3Z" transform="translate(17.41 -49.95)"/><path class="cls-2" d="M99.89,105.38S81.75,129.86,43,129.5s-69.56-13-55.28-44.13c0,0-12.57,13.2,1.59,33.94S84.66,149.53,99.89,105.38Z" transform="translate(17.41 -49.95)"/><path class="cls-2" d="M100.11,105.38S118.25,129.86,157,129.5s69.56-13,55.28-44.13c0,0,12.57,13.2-1.59,33.94S115.34,149.53,100.11,105.38Z" transform="translate(17.41 -49.95)"/></svg>