<svg id="Calque_1" data-name="Calque 1" xmlns="http://www.w3.org/2000/svg" viewBox="0 0 273.26 92.29"><defs><style>.cls-1{fill:#40331e;}.cls-2{fill:#312720;}</style></defs><title>mustache_2</title><path class="cls-1" d="M154.17,53.36c-30.42-.36-47.89,34.45-54.17,50C93.72,87.81,76.26,53,45.84,53.36c-39.14.47-93.19,79.11-80.61,82.18s25.63-12.76,25.63-12.76S-12.87,139.09.64,141s29.82-15,29.82-15,0,18.76,9.09,19.7,25.85-19.7,25.85-19.7-3.73,14.1,8.39,15.5c9.28,1.07,21-9.89,26.21-20.94,5.2,11.05,16.93,22,26.21,20.94,12.12-1.4,8.39-15.5,8.39-15.5s16.77,20.63,25.85,19.7,9.09-19.7,9.09-19.7,16.31,16.9,29.82,15,9.78-18.17,9.78-18.17,13,15.84,25.63,12.76S193.3,53.82,154.17,53.36Z" transform="translate(36.63 -53.36)"/><path class="cls-2" d="M-9.14,117.53s-13,15.84-25.63,12.76a2.15,2.15,0,0,1-1.37-1c-.92,3.49-.57,5.75,1.37,6.22C-23.55,138.29-12,126-9.59,123.3A24.35,24.35,0,0,1-9.14,117.53Z" transform="translate(36.63 -53.36)"/><path class="cls-2" d="M199.36,135.7c-13.51,1.87-29.82-15-29.82-15s0,18.76-9.09,19.7-25.85-19.7-25.85-19.7a20.26,20.26,0,0,1,.5,5.85c2.83,3.37,17.19,19.93,25.35,19.09,9.08-.93,9.09-19.7,9.09-19.7s16.31,16.9,29.82,15c10.5-1.45,10.59-11.61,10.11-16.07C208.93,129.47,206.66,134.69,199.36,135.7Z" transform="translate(36.63 -53.36)"/><path class="cls-2" d="M126.21,136.17c-9.28,1.07-21-9.89-26.21-20.94-5.19,11.05-16.93,22-26.21,20.94-6.08-.7-8.17-4.6-8.74-8.32-.52,3.91-.57,12.49,8.74,13.57s21-9.89,26.21-20.94c5.2,11.05,16.93,22,26.21,20.94s9.26-9.66,8.74-13.57C134.38,131.56,132.29,135.46,126.21,136.17Z" transform="translate(36.63 -53.36)"/><path class="cls-2" d="M65.41,120.67s-16.77,20.63-25.85,19.7-9.09-19.7-9.09-19.7-16.31,16.9-29.82,15c-7.31-1-9.57-6.24-10.11-10.83C-9.95,129.34-9.86,139.51.64,141c13.51,1.87,29.82-15,29.82-15s0,18.76,9.09,19.7c8.16.84,22.52-15.72,25.35-19.09A20.25,20.25,0,0,1,65.41,120.67Z" transform="translate(36.63 -53.36)"/><path class="cls-2" d="M236.14,129.32a2.15,2.15,0,0,1-1.37,1c-12.58,3.08-25.63-12.76-25.63-12.76a24.35,24.35,0,0,1,.45,5.77c2.37,2.69,14,15,25.18,12.24C236.71,135.07,237.06,132.8,236.14,129.32Z" transform="translate(36.63 -53.36)"/><path class="cls-2" d="M-9.59,123.3c0,.51.06,1,.12,1.57a20.23,20.23,0,0,1,.32-2.09Z" transform="translate(36.63 -53.36)"/><path class="cls-2" d="M209.47,124.88c.06-.54.1-1.07.13-1.58l-.45-.52A20,20,0,0,1,209.47,124.88Z" transform="translate(36.63 -53.36)"/><path class="cls-2" d="M135,127.85c.07-.45.12-.89.15-1.33l-.5-.6A17.46,17.46,0,0,1,135,127.85Z" transform="translate(36.63 -53.36)"/><path class="cls-2" d="M64.9,126.52c0,.44.08.88.15,1.33a17.64,17.64,0,0,1,.36-1.93Z" transform="translate(36.63 -53.36)"/></svg>